<svg width="25" height="24" viewBox="0 0 25 24" fill="none" xmlns="http://www.w3.org/2000/svg">
<mask id="mask0_1_3838" style="mask-type:alpha" maskUnits="userSpaceOnUse" x="0" y="0" width="25" height="24">
<path d="M24.5 0H0.5V24H24.5V0Z" fill="white"/>
</mask>
<g mask="url(#mask0_1_3838)">
<path d="M13.029 8.025C13.549 8.025 13.999 8.475 13.999 9.005C13.999 9.525 13.549 9.975 13.029 9.975H9.429C8.899 9.975 8.449 9.525 8.449 9.005C8.449 8.475 8.899 8.025 9.429 8.025H13.029ZM9.495 15.974C8.975 15.974 8.525 15.524 8.525 15.004C8.525 14.474 8.975 14.024 9.495 14.024H15.575C16.105 14.024 16.555 14.474 16.555 15.004C16.555 15.524 16.105 15.974 15.575 15.974H9.495ZM22.48 24H2.53C1.4 24 0.5 23.1 0.5 21.98V2.03C0.5 0.9 1.4 0 2.53 0H22.55C23.6 0 24.5 0.9 24.5 2.03V21.98C24.5 23.1 23.6 24 22.48 24ZM4.475 9.003V15.003C4.475 17.773 6.725 20.023 9.505 20.023H15.505C18.275 20.023 20.525 17.773 20.525 15.003V11.023C20.525 10.423 20.075 9.973 19.475 9.973H18.495C17.975 9.973 17.525 9.523 17.525 9.003C17.525 6.223 15.275 3.973 12.495 3.973H9.495C6.725 3.973 4.475 6.223 4.475 9.003Z" fill="#7F00FF"/>
</g>
</svg>
